<?xml version="1.0" encoding="UTF-8" standalone="no"?><svg xmlns="http://www.w3.org/2000/svg" xmlns:xlink="http://www.w3.org/1999/xlink" contentScriptType="application/ecmascript" contentStyleType="text/css" height="770px" preserveAspectRatio="none" style="width:334px;height:770px;" version="1.1" viewBox="0 0 334 770" width="334px" zoomAndPan="magnify"><defs><filter height="300%" id="f1c40owc4419ts" width="300%" x="-1" y="-1"><feGaussianBlur result="blurOut" stdDeviation="2.0"/><feColorMatrix in="blurOut" result="blurOut2" type="matrix" values="0 0 0 0 0 0 0 0 0 0 0 0 0 0 0 0 0 0 .4 0"/><feOffset dx="4.0" dy="4.0" in="blurOut2" result="blurOut3"/><feBlend in="SourceGraphic" in2="blurOut3" mode="normal"/></filter></defs><g><!--MD5=[35a64b983c79880384a2fd9b61f0c24b]
class Usuario--><rect codeLine="2" fill="#FEFECE" filter="url(#f1c40owc4419ts)" height="137.6328" id="Usuario" style="stroke:#A80036;stroke-width:1.5;" width="141" x="7" y="153"/><ellipse cx="49.45" cy="169" fill="#ADD1B2" rx="11" ry="11" style="stroke:#A80036;stroke-width:1.0;"/><path d="M52.4188,174.6406 Q51.8406,174.9375 51.2,175.0781 Q50.5594,175.2344 49.8563,175.2344 Q47.3563,175.2344 46.0281,173.5938 Q44.7156,171.9375 44.7156,168.8125 Q44.7156,165.6875 46.0281,164.0313 Q47.3563,162.375 49.8563,162.375 Q50.5594,162.375 51.2,162.5313 Q51.8563,162.6875 52.4188,162.9844 L52.4188,165.7031 Q51.7938,165.125 51.2,164.8594 Q50.6063,164.5781 49.9813,164.5781 Q48.6375,164.5781 47.95,165.6563 Q47.2625,166.7188 47.2625,168.8125 Q47.2625,170.9063 47.95,171.9844 Q48.6375,173.0469 49.9813,173.0469 Q50.6063,173.0469 51.2,172.7813 Q51.7938,172.5 52.4188,171.9219 L52.4188,174.6406 Z " fill="#000000"/><text fill="#000000" font-family="sans-serif" font-size="12" lengthAdjust="spacing" textLength="48" x="69.55" y="173.1543">Usuario</text><line style="stroke:#A80036;stroke-width:1.5;" x1="8" x2="147" y1="185" y2="185"/><rect fill="none" height="6" style="stroke:#C82930;stroke-width:1.0;" width="6" x="15" y="193"/><text fill="#000000" font-family="sans-serif" font-size="11" lengthAdjust="spacing" textLength="58" x="27" y="199.2104">id: Integer</text><rect fill="none" height="6" style="stroke:#C82930;stroke-width:1.0;" width="6" x="15" y="205.8047"/><text fill="#000000" font-family="sans-serif" font-size="11" lengthAdjust="spacing" textLength="74" x="27" y="212.0151">nome: String</text><rect fill="none" height="6" style="stroke:#C82930;stroke-width:1.0;" width="6" x="15" y="218.6094"/><text fill="#000000" font-family="sans-serif" font-size="11" lengthAdjust="spacing" textLength="59" x="27" y="224.8198">cpf: String</text><rect fill="none" height="6" style="stroke:#C82930;stroke-width:1.0;" width="6" x="15" y="231.4141"/><text fill="#000000" font-family="sans-serif" font-size="11" lengthAdjust="spacing" textLength="115" x="27" y="237.6245">dataNasciento: Date</text><rect fill="none" height="6" style="stroke:#C82930;stroke-width:1.0;" width="6" x="15" y="244.2188"/><text fill="#000000" font-family="sans-serif" font-size="11" lengthAdjust="spacing" textLength="73" x="27" y="250.4292">email: String</text><rect fill="none" height="6" style="stroke:#C82930;stroke-width:1.0;" width="6" x="15" y="257.0234"/><text fill="#000000" font-family="sans-serif" font-size="11" lengthAdjust="spacing" textLength="69" x="27" y="263.2339">login: String</text><rect fill="none" height="6" style="stroke:#C82930;stroke-width:1.0;" width="6" x="15" y="269.8281"/><text fill="#000000" font-family="sans-serif" font-size="11" lengthAdjust="spacing" textLength="77" x="27" y="276.0386">senha: String</text><line style="stroke:#A80036;stroke-width:1.5;" x1="8" x2="147" y1="282.6328" y2="282.6328"/><!--MD5=[b0d447918147c1f7edd71021b59528c0]
class Perfil--><rect codeLine="12" fill="#FEFECE" filter="url(#f1c40owc4419ts)" height="86.4141" id="Perfil" style="stroke:#A80036;stroke-width:1.5;" width="139" x="8" y="364"/><ellipse cx="57.75" cy="380" fill="#EB937F" rx="11" ry="11" style="stroke:#A80036;stroke-width:1.0;"/><path d="M61.8594,386 L54.1406,386 L54.1406,373.6094 L61.8594,373.6094 L61.8594,375.7656 L56.5938,375.7656 L56.5938,378.4375 L61.3594,378.4375 L61.3594,380.5938 L56.5938,380.5938 L56.5938,383.8438 L61.8594,383.8438 L61.8594,386 Z " fill="#000000"/><text fill="#000000" font-family="sans-serif" font-size="12" lengthAdjust="spacing" textLength="31" x="78.25" y="384.1543">Perfil</text><line style="stroke:#A80036;stroke-width:1.5;" x1="9" x2="146" y1="396" y2="396"/><ellipse cx="19" cy="407" fill="none" rx="3" ry="3" style="stroke:#038048;stroke-width:1.0;"/><text fill="#000000" font-family="sans-serif" font-size="11" lengthAdjust="spacing" textLength="113" x="28" y="410.2104">ADMINISTRADOR: int</text><ellipse cx="19" cy="419.8047" fill="none" rx="3" ry="3" style="stroke:#038048;stroke-width:1.0;"/><text fill="#000000" font-family="sans-serif" font-size="11" lengthAdjust="spacing" textLength="68" x="28" y="423.0151">CLIENTE: int</text><ellipse cx="19" cy="432.6094" fill="none" rx="3" ry="3" style="stroke:#038048;stroke-width:1.0;"/><text fill="#000000" font-family="sans-serif" font-size="11" lengthAdjust="spacing" textLength="98" x="28" y="435.8198">FUNCIONARIO: int</text><line style="stroke:#A80036;stroke-width:1.5;" x1="9" x2="146" y1="442.4141" y2="442.4141"/><!--MD5=[d4dacc50d49878ba7c621dfc80a2e1ce]
class Produto--><rect codeLine="18" fill="#FEFECE" filter="url(#f1c40owc4419ts)" height="112.0234" id="Produto" style="stroke:#A80036;stroke-width:1.5;" width="123" x="190" y="351"/><ellipse cx="223.45" cy="367" fill="#ADD1B2" rx="11" ry="11" style="stroke:#A80036;stroke-width:1.0;"/><path d="M226.4188,372.6406 Q225.8406,372.9375 225.2,373.0781 Q224.5594,373.2344 223.8563,373.2344 Q221.3563,373.2344 220.0281,371.5938 Q218.7156,369.9375 218.7156,366.8125 Q218.7156,363.6875 220.0281,362.0313 Q221.3563,360.375 223.8563,360.375 Q224.5594,360.375 225.2,360.5313 Q225.8563,360.6875 226.4188,360.9844 L226.4188,363.7031 Q225.7938,363.125 225.2,362.8594 Q224.6063,362.5781 223.9813,362.5781 Q222.6375,362.5781 221.95,363.6563 Q221.2625,364.7188 221.2625,366.8125 Q221.2625,368.9063 221.95,369.9844 Q222.6375,371.0469 223.9813,371.0469 Q224.6063,371.0469 225.2,370.7813 Q225.7938,370.5 226.4188,369.9219 L226.4188,372.6406 Z " fill="#000000"/><text fill="#000000" font-family="sans-serif" font-size="12" lengthAdjust="spacing" textLength="50" x="241.55" y="371.1543">Produto</text><line style="stroke:#A80036;stroke-width:1.5;" x1="191" x2="312" y1="383" y2="383"/><rect fill="none" height="6" style="stroke:#C82930;stroke-width:1.0;" width="6" x="198" y="391"/><text fill="#000000" font-family="sans-serif" font-size="11" lengthAdjust="spacing" textLength="58" x="210" y="397.2104">id: Integer</text><rect fill="none" height="6" style="stroke:#C82930;stroke-width:1.0;" width="6" x="198" y="403.8047"/><text fill="#000000" font-family="sans-serif" font-size="11" lengthAdjust="spacing" textLength="74" x="210" y="410.0151">nome: String</text><rect fill="none" height="6" style="stroke:#C82930;stroke-width:1.0;" width="6" x="198" y="416.6094"/><text fill="#000000" font-family="sans-serif" font-size="11" lengthAdjust="spacing" textLength="97" x="210" y="422.8198">descricao: String</text><rect fill="none" height="6" style="stroke:#C82930;stroke-width:1.0;" width="6" x="198" y="429.4141"/><text fill="#000000" font-family="sans-serif" font-size="11" lengthAdjust="spacing" textLength="93" x="210" y="435.6245">estoque: Double</text><rect fill="none" height="6" style="stroke:#C82930;stroke-width:1.0;" width="6" x="198" y="442.2188"/><text fill="#000000" font-family="sans-serif" font-size="11" lengthAdjust="spacing" textLength="79" x="210" y="448.4292">preco: Double</text><line style="stroke:#A80036;stroke-width:1.5;" x1="191" x2="312" y1="455.0234" y2="455.0234"/><!--MD5=[e570407f598ccc089bf8cecb7854983b]
class Peso--><rect codeLine="26" fill="#FEFECE" filter="url(#f1c40owc4419ts)" height="73.6094" id="Peso" style="stroke:#A80036;stroke-width:1.5;" width="101" x="201" y="523"/><ellipse cx="233.1" cy="539" fill="#ADD1B2" rx="11" ry="11" style="stroke:#A80036;stroke-width:1.0;"/><path d="M236.0688,544.6406 Q235.4906,544.9375 234.85,545.0781 Q234.2094,545.2344 233.5063,545.2344 Q231.0063,545.2344 229.6781,543.5938 Q228.3656,541.9375 228.3656,538.8125 Q228.3656,535.6875 229.6781,534.0313 Q231.0063,532.375 233.5063,532.375 Q234.2094,532.375 234.85,532.5313 Q235.5063,532.6875 236.0688,532.9844 L236.0688,535.7031 Q235.4438,535.125 234.85,534.8594 Q234.2563,534.5781 233.6313,534.5781 Q232.2875,534.5781 231.6,535.6563 Q230.9125,536.7188 230.9125,538.8125 Q230.9125,540.9063 231.6,541.9844 Q232.2875,543.0469 233.6313,543.0469 Q234.2563,543.0469 234.85,542.7813 Q235.4438,542.5 236.0688,541.9219 L236.0688,544.6406 Z " fill="#000000"/><text fill="#000000" font-family="sans-serif" font-size="12" lengthAdjust="spacing" textLength="31" x="250.9" y="543.1543">Peso</text><line style="stroke:#A80036;stroke-width:1.5;" x1="202" x2="301" y1="555" y2="555"/><rect fill="none" height="6" style="stroke:#C82930;stroke-width:1.0;" width="6" x="209" y="563"/><text fill="#000000" font-family="sans-serif" font-size="11" lengthAdjust="spacing" textLength="58" x="221" y="569.2104">id: Integer</text><rect fill="none" height="6" style="stroke:#C82930;stroke-width:1.0;" width="6" x="209" y="575.8047"/><text fill="#000000" font-family="sans-serif" font-size="11" lengthAdjust="spacing" textLength="75" x="221" y="582.0151">valor: Double</text><line style="stroke:#A80036;stroke-width:1.5;" x1="202" x2="301" y1="588.6094" y2="588.6094"/><!--MD5=[7dd8dc3bd563d13a076c2ef8298be09f]
class TipoPeso--><rect codeLine="31" fill="#FEFECE" filter="url(#f1c40owc4419ts)" height="99.2188" id="TipoPeso" style="stroke:#A80036;stroke-width:1.5;" width="108" x="197.5" y="657"/><ellipse cx="221.05" cy="673" fill="#EB937F" rx="11" ry="11" style="stroke:#A80036;stroke-width:1.0;"/><path d="M225.1594,679 L217.4406,679 L217.4406,666.6094 L225.1594,666.6094 L225.1594,668.7656 L219.8938,668.7656 L219.8938,671.4375 L224.6594,671.4375 L224.6594,673.5938 L219.8938,673.5938 L219.8938,676.8438 L225.1594,676.8438 L225.1594,679 Z " fill="#000000"/><text fill="#000000" font-family="sans-serif" font-size="12" lengthAdjust="spacing" textLength="57" x="236.95" y="677.1543">TipoPeso</text><line style="stroke:#A80036;stroke-width:1.5;" x1="198.5" x2="304.5" y1="689" y2="689"/><ellipse cx="208.5" cy="700" fill="none" rx="3" ry="3" style="stroke:#038048;stroke-width:1.0;"/><text fill="#000000" font-family="sans-serif" font-size="11" lengthAdjust="spacing" textLength="38" x="217.5" y="703.2104">KG: int</text><ellipse cx="208.5" cy="712.8047" fill="none" rx="3" ry="3" style="stroke:#038048;stroke-width:1.0;"/><text fill="#000000" font-family="sans-serif" font-size="11" lengthAdjust="spacing" textLength="61" x="217.5" y="716.0151">GRAMA: int</text><ellipse cx="208.5" cy="725.6094" fill="none" rx="3" ry="3" style="stroke:#038048;stroke-width:1.0;"/><text fill="#000000" font-family="sans-serif" font-size="11" lengthAdjust="spacing" textLength="53" x="217.5" y="728.8198">LIBRA: int</text><ellipse cx="208.5" cy="738.4141" fill="none" rx="3" ry="3" style="stroke:#038048;stroke-width:1.0;"/><text fill="#000000" font-family="sans-serif" font-size="11" lengthAdjust="spacing" textLength="82" x="217.5" y="741.6245">MILIGRAMA: int</text><line style="stroke:#A80036;stroke-width:1.5;" x1="198.5" x2="304.5" y1="748.2188" y2="748.2188"/><!--MD5=[06a1f3f399e1919b66bb5cca56e2f0b6]
class Venda--><rect codeLine="38" fill="#FEFECE" filter="url(#f1c40owc4419ts)" height="86.4141" id="Venda" style="stroke:#A80036;stroke-width:1.5;" width="133" x="98" y="7"/><ellipse cx="140.45" cy="23" fill="#ADD1B2" rx="11" ry="11" style="stroke:#A80036;stroke-width:1.0;"/><path d="M143.4188,28.6406 Q142.8406,28.9375 142.2,29.0781 Q141.5594,29.2344 140.8563,29.2344 Q138.3563,29.2344 137.0281,27.5938 Q135.7156,25.9375 135.7156,22.8125 Q135.7156,19.6875 137.0281,18.0313 Q138.3563,16.375 140.8563,16.375 Q141.5594,16.375 142.2,16.5313 Q142.8563,16.6875 143.4188,16.9844 L143.4188,19.7031 Q142.7938,19.125 142.2,18.8594 Q141.6063,18.5781 140.9813,18.5781 Q139.6375,18.5781 138.95,19.6563 Q138.2625,20.7188 138.2625,22.8125 Q138.2625,24.9063 138.95,25.9844 Q139.6375,27.0469 140.9813,27.0469 Q141.6063,27.0469 142.2,26.7813 Q142.7938,26.5 143.4188,25.9219 L143.4188,28.6406 Z " fill="#000000"/><text fill="#000000" font-family="sans-serif" font-size="12" lengthAdjust="spacing" textLength="40" x="160.55" y="27.1543">Venda</text><line style="stroke:#A80036;stroke-width:1.5;" x1="99" x2="230" y1="39" y2="39"/><rect fill="none" height="6" style="stroke:#C82930;stroke-width:1.0;" width="6" x="106" y="47"/><text fill="#000000" font-family="sans-serif" font-size="11" lengthAdjust="spacing" textLength="58" x="118" y="53.2104">id: Integer</text><rect fill="none" height="6" style="stroke:#C82930;stroke-width:1.0;" width="6" x="106" y="59.8047"/><text fill="#000000" font-family="sans-serif" font-size="11" lengthAdjust="spacing" textLength="59" x="118" y="66.0151">data: Date</text><rect fill="none" height="6" style="stroke:#C82930;stroke-width:1.0;" width="6" x="106" y="72.6094"/><text fill="#000000" font-family="sans-serif" font-size="11" lengthAdjust="spacing" textLength="107" x="118" y="78.8198">totalVenda: Double</text><line style="stroke:#A80036;stroke-width:1.5;" x1="99" x2="230" y1="85.4141" y2="85.4141"/><!--MD5=[647f1aa02a9013a1bbca3ef7c035fd70]
class ItemVenda--><rect codeLine="44" fill="#FEFECE" filter="url(#f1c40owc4419ts)" height="86.4141" id="ItemVenda" style="stroke:#A80036;stroke-width:1.5;" width="137" x="183" y="179"/><ellipse cx="215.1" cy="195" fill="#ADD1B2" rx="11" ry="11" style="stroke:#A80036;stroke-width:1.0;"/><path d="M218.0688,200.6406 Q217.4906,200.9375 216.85,201.0781 Q216.2094,201.2344 215.5063,201.2344 Q213.0063,201.2344 211.6781,199.5938 Q210.3656,197.9375 210.3656,194.8125 Q210.3656,191.6875 211.6781,190.0313 Q213.0063,188.375 215.5063,188.375 Q216.2094,188.375 216.85,188.5313 Q217.5063,188.6875 218.0688,188.9844 L218.0688,191.7031 Q217.4438,191.125 216.85,190.8594 Q216.2563,190.5781 215.6313,190.5781 Q214.2875,190.5781 213.6,191.6563 Q212.9125,192.7188 212.9125,194.8125 Q212.9125,196.9063 213.6,197.9844 Q214.2875,199.0469 215.6313,199.0469 Q216.2563,199.0469 216.85,198.7813 Q217.4438,198.5 218.0688,197.9219 L218.0688,200.6406 Z " fill="#000000"/><text fill="#000000" font-family="sans-serif" font-size="12" lengthAdjust="spacing" textLength="67" x="232.9" y="199.1543">ItemVenda</text><line style="stroke:#A80036;stroke-width:1.5;" x1="184" x2="319" y1="211" y2="211"/><rect fill="none" height="6" style="stroke:#C82930;stroke-width:1.0;" width="6" x="191" y="219"/><text fill="#000000" font-family="sans-serif" font-size="11" lengthAdjust="spacing" textLength="58" x="203" y="225.2104">id: Integer</text><rect fill="none" height="6" style="stroke:#C82930;stroke-width:1.0;" width="6" x="191" y="231.8047"/><text fill="#000000" font-family="sans-serif" font-size="11" lengthAdjust="spacing" textLength="111" x="203" y="238.0151">quantidade: Integer</text><rect fill="none" height="6" style="stroke:#C82930;stroke-width:1.0;" width="6" x="191" y="244.6094"/><text fill="#000000" font-family="sans-serif" font-size="11" lengthAdjust="spacing" textLength="75" x="203" y="250.8198">valor: Double</text><line style="stroke:#A80036;stroke-width:1.5;" x1="184" x2="319" y1="257.4141" y2="257.4141"/><!--MD5=[78b02ff3bfef5e90cc84982d1930f5c0]
link ItemVenda to Produto--><path codeLine="51" d="M251.5,265.44 C251.5,289.3 251.5,319.47 251.5,345.74 " fill="none" id="ItemVenda-to-Produto" style="stroke:#A80036;stroke-width:1.0;"/><polygon fill="#A80036" points="251.5,350.94,255.5,341.94,251.5,345.94,247.5,341.94,251.5,350.94" style="stroke:#A80036;stroke-width:1.0;"/><text fill="#000000" font-family="sans-serif" font-size="13" lengthAdjust="spacing" textLength="7" x="243.9422" y="285.603">*</text><text fill="#000000" font-family="sans-serif" font-size="13" lengthAdjust="spacing" textLength="8" x="242.9875" y="339.8703">1</text><!--MD5=[624e17ab171f94e3348cd5bbd7daa447]
link Venda to ItemVenda--><path codeLine="52" d="M191.4818,103.6999 C191.4818,103.6999 213.76,147.26 223.96,167.18 " fill="none" id="Venda-ItemVenda" style="stroke:#A80036;stroke-width:1.0;"/><polygon fill="#A80036" points="229.94,178.87,229.4057,169.0356,227.6644,174.4178,222.2823,172.6765,229.94,178.87" style="stroke:#A80036;stroke-width:1.0;"/><line style="stroke:#A80036;stroke-width:1.0;" x1="227.6644" x2="224.02" y1="174.4178" y2="167.3"/><polygon fill="#A80036" points="186.01,93.02,185.1859,100.1839,191.4818,103.6999,192.3058,96.536,186.01,93.02" style="stroke:#A80036;stroke-width:1.0;"/><text fill="#000000" font-family="sans-serif" font-size="13" lengthAdjust="spacing" textLength="8" x="180.9101" y="113.431">1</text><text fill="#000000" font-family="sans-serif" font-size="13" lengthAdjust="spacing" textLength="7" x="218.9461" y="167.8453">*</text><!--MD5=[d4899aec6ec091282475e12254e3481e]
link Venda to Usuario--><path codeLine="53" d="M142.99,93.02 C134.51,109.61 124.5,129.16 114.9,147.92 " fill="none" id="Venda-to-Usuario" style="stroke:#A80036;stroke-width:1.0;"/><polygon fill="#A80036" points="112.47,152.67,120.1442,146.4969,114.7574,148.2239,113.0304,142.8371,112.47,152.67" style="stroke:#A80036;stroke-width:1.0;"/><text fill="#000000" font-family="sans-serif" font-size="13" lengthAdjust="spacing" textLength="7" x="131.8477" y="113.431">*</text><text fill="#000000" font-family="sans-serif" font-size="13" lengthAdjust="spacing" textLength="8" x="107.6638" y="141.8396">1</text><!--MD5=[0e2bf77ac386a753523e351e9e60af28]
link Usuario to Perfil--><path codeLine="54" d="M77.5,291.14 C77.5,313.63 77.5,338.13 77.5,358.7 " fill="none" id="Usuario-to-Perfil" style="stroke:#A80036;stroke-width:1.0;"/><polygon fill="#A80036" points="77.5,363.84,81.5,354.84,77.5,358.84,73.5,354.84,77.5,363.84" style="stroke:#A80036;stroke-width:1.0;"/><text fill="#000000" font-family="sans-serif" font-size="13" lengthAdjust="spacing" textLength="7" x="70.1555" y="310.7758">*</text><text fill="#000000" font-family="sans-serif" font-size="13" lengthAdjust="spacing" textLength="8" x="68.8625" y="352.8105">1</text><!--MD5=[373dd2cdb19cb9db3e19b8520a5cbf55]
link Produto to Peso--><path codeLine="55" d="M251.5,475.37 C251.5,475.37 251.5,499.05 251.5,509.59 " fill="none" id="Produto-Peso" style="stroke:#A80036;stroke-width:1.0;"/><polygon fill="#A80036" points="251.5,522.91,255.5,513.91,251.5,517.91,247.5,513.91,251.5,522.91" style="stroke:#A80036;stroke-width:1.0;"/><line style="stroke:#A80036;stroke-width:1.0;" x1="251.5" x2="251.5" y1="517.91" y2="509.91"/><polygon fill="#A80036" points="251.5,463.37,247.5,469.37,251.5,475.37,255.5,469.37,251.5,463.37" style="stroke:#A80036;stroke-width:1.0;"/><text fill="#000000" font-family="sans-serif" font-size="13" lengthAdjust="spacing" textLength="8" x="243.0125" y="483.2277">1</text><text fill="#000000" font-family="sans-serif" font-size="13" lengthAdjust="spacing" textLength="8" x="242.7625" y="511.8039">1</text><!--MD5=[c684fd68f4ce7a49b5e254ec26dcdd04]
link Peso to TipoPeso--><path codeLine="56" d="M251.5,597.09 C251.5,613.6 251.5,633.49 251.5,651.71 " fill="none" id="Peso-to-TipoPeso" style="stroke:#A80036;stroke-width:1.0;"/><polygon fill="#A80036" points="251.5,656.8,255.5,647.8,251.5,651.8,247.5,647.8,251.5,656.8" style="stroke:#A80036;stroke-width:1.0;"/><text fill="#000000" font-family="sans-serif" font-size="13" lengthAdjust="spacing" textLength="7" x="243.9203" y="616.5855">*</text><text fill="#000000" font-family="sans-serif" font-size="13" lengthAdjust="spacing" textLength="8" x="242.9375" y="645.8171">1</text><!--MD5=[5f9b8966f7d9ac338c16ccaf528e868f]
@startuml

class Usuario {
    - id: Integer
    - nome: String
    - cpf: String
    - dataNasciento: Date
    - email: String
    - login: String
    - senha: String
}

enum Perfil {
   + ADMINISTRADOR: int
   + CLIENTE: int
   + FUNCIONARIO: int
}

class Produto {
    - id: Integer
    - nome: String
    - descricao: String
    - estoque: Double
    - preco: Double
}

class Peso {
    - id: Integer
    - valor: Double
}

enum TipoPeso {
    + KG: int
    + GRAMA: int
    + LIBRA: int
    + MILIGRAMA: int    
}

class Venda {
    - id: Integer
    - data: Date
    - totalVenda: Double
}

class ItemVenda {
    - id: Integer
    - quantidade: Integer
    - valor: Double
}


ItemVenda "*" - -> "1" Produto
Venda "1" *- -> "*" ItemVenda
Venda "*" - -> "1" Usuario
Usuario "*" - -> "1" Perfil
Produto "1" *- -> "1" Peso
Peso "*" - -> "1" TipoPeso

@enduml

PlantUML version 1.2021.00(Sun Jan 10 07:25:05 BRT 2021)
(MIT source distribution)
Java Runtime: OpenJDK Runtime Environment
JVM: OpenJDK 64-Bit Server VM
Default Encoding: ANSI_X3.4-1968
Language: en
Country: US
--></g></svg>